<mxfile host="Electron" agent="Mozilla/5.0 (Windows NT 10.0; Win64; x64) AppleWebKit/537.36 (KHTML, like Gecko) draw.io/24.7.17 Chrome/128.0.6613.36 Electron/32.0.1 Safari/537.36" version="24.7.17">
  <diagram name="Página-1" id="bjEXzCa8DijOgkKrVsNr">
    <mxGraphModel dx="2181" dy="818" grid="1" gridSize="10" guides="1" tooltips="1" connect="1" arrows="1" fold="1" page="1" pageScale="1" pageWidth="827" pageHeight="1169" math="0" shadow="0">
      <root>
        <mxCell id="0" />
        <mxCell id="1" parent="0" />
        <mxCell id="slkItmRG1MetvJPkmrtS-3" value="" style="edgeStyle=orthogonalEdgeStyle;rounded=0;orthogonalLoop=1;jettySize=auto;html=1;" edge="1" parent="1" source="slkItmRG1MetvJPkmrtS-1" target="slkItmRG1MetvJPkmrtS-2">
          <mxGeometry relative="1" as="geometry">
            <Array as="points">
              <mxPoint x="315" y="190" />
              <mxPoint x="315" y="140" />
            </Array>
          </mxGeometry>
        </mxCell>
        <mxCell id="slkItmRG1MetvJPkmrtS-7" value="" style="edgeStyle=orthogonalEdgeStyle;rounded=0;orthogonalLoop=1;jettySize=auto;html=1;" edge="1" parent="1" source="slkItmRG1MetvJPkmrtS-1" target="slkItmRG1MetvJPkmrtS-6">
          <mxGeometry relative="1" as="geometry">
            <Array as="points">
              <mxPoint x="315" y="210" />
              <mxPoint x="315" y="260" />
            </Array>
          </mxGeometry>
        </mxCell>
        <mxCell id="slkItmRG1MetvJPkmrtS-11" value="" style="edgeStyle=orthogonalEdgeStyle;rounded=0;orthogonalLoop=1;jettySize=auto;html=1;" edge="1" parent="1" source="slkItmRG1MetvJPkmrtS-1" target="slkItmRG1MetvJPkmrtS-10">
          <mxGeometry relative="1" as="geometry" />
        </mxCell>
        <mxCell id="slkItmRG1MetvJPkmrtS-28" value="" style="edgeStyle=orthogonalEdgeStyle;rounded=0;orthogonalLoop=1;jettySize=auto;html=1;" edge="1" parent="1" source="slkItmRG1MetvJPkmrtS-1" target="slkItmRG1MetvJPkmrtS-27">
          <mxGeometry relative="1" as="geometry">
            <Array as="points">
              <mxPoint x="440" y="150" />
              <mxPoint x="440" y="150" />
            </Array>
          </mxGeometry>
        </mxCell>
        <mxCell id="slkItmRG1MetvJPkmrtS-33" style="edgeStyle=orthogonalEdgeStyle;rounded=0;orthogonalLoop=1;jettySize=auto;html=1;" edge="1" parent="1" source="slkItmRG1MetvJPkmrtS-1" target="slkItmRG1MetvJPkmrtS-31">
          <mxGeometry relative="1" as="geometry" />
        </mxCell>
        <mxCell id="slkItmRG1MetvJPkmrtS-1" value="Empleado" style="rounded=0;whiteSpace=wrap;html=1;" vertex="1" parent="1">
          <mxGeometry x="350" y="170" width="120" height="60" as="geometry" />
        </mxCell>
        <mxCell id="slkItmRG1MetvJPkmrtS-5" value="" style="edgeStyle=orthogonalEdgeStyle;rounded=0;orthogonalLoop=1;jettySize=auto;html=1;entryX=0.999;entryY=0.334;entryDx=0;entryDy=0;entryPerimeter=0;" edge="1" parent="1" target="slkItmRG1MetvJPkmrtS-4">
          <mxGeometry relative="1" as="geometry">
            <mxPoint x="200" y="140" as="sourcePoint" />
            <mxPoint x="150" y="210" as="targetPoint" />
            <Array as="points">
              <mxPoint x="175" y="140" />
              <mxPoint x="175" y="190" />
            </Array>
          </mxGeometry>
        </mxCell>
        <mxCell id="slkItmRG1MetvJPkmrtS-2" value="trabaja" style="rhombus;whiteSpace=wrap;html=1;rounded=0;" vertex="1" parent="1">
          <mxGeometry x="200" y="100" width="80" height="80" as="geometry" />
        </mxCell>
        <mxCell id="slkItmRG1MetvJPkmrtS-4" value="Area" style="whiteSpace=wrap;html=1;rounded=0;" vertex="1" parent="1">
          <mxGeometry x="30" y="170" width="120" height="60" as="geometry" />
        </mxCell>
        <mxCell id="slkItmRG1MetvJPkmrtS-9" value="" style="edgeStyle=orthogonalEdgeStyle;rounded=0;orthogonalLoop=1;jettySize=auto;html=1;" edge="1" parent="1" source="slkItmRG1MetvJPkmrtS-6" target="slkItmRG1MetvJPkmrtS-4">
          <mxGeometry relative="1" as="geometry">
            <Array as="points">
              <mxPoint x="175" y="260" />
              <mxPoint x="175" y="210" />
            </Array>
          </mxGeometry>
        </mxCell>
        <mxCell id="slkItmRG1MetvJPkmrtS-6" value="gerencia" style="rhombus;whiteSpace=wrap;html=1;rounded=0;" vertex="1" parent="1">
          <mxGeometry x="200" y="220" width="80" height="80" as="geometry" />
        </mxCell>
        <mxCell id="slkItmRG1MetvJPkmrtS-97" style="edgeStyle=orthogonalEdgeStyle;rounded=0;orthogonalLoop=1;jettySize=auto;html=1;endArrow=oval;endFill=0;" edge="1" parent="1" source="slkItmRG1MetvJPkmrtS-10">
          <mxGeometry relative="1" as="geometry">
            <mxPoint x="737.5" y="312.5" as="targetPoint" />
          </mxGeometry>
        </mxCell>
        <mxCell id="slkItmRG1MetvJPkmrtS-99" style="edgeStyle=orthogonalEdgeStyle;rounded=0;orthogonalLoop=1;jettySize=auto;html=1;" edge="1" parent="1" source="slkItmRG1MetvJPkmrtS-10" target="slkItmRG1MetvJPkmrtS-22">
          <mxGeometry relative="1" as="geometry" />
        </mxCell>
        <mxCell id="slkItmRG1MetvJPkmrtS-10" value="asigna" style="rhombus;whiteSpace=wrap;html=1;rounded=0;" vertex="1" parent="1">
          <mxGeometry x="637.5" y="272.5" width="80" height="80" as="geometry" />
        </mxCell>
        <mxCell id="slkItmRG1MetvJPkmrtS-15" value="" style="edgeStyle=orthogonalEdgeStyle;rounded=0;orthogonalLoop=1;jettySize=auto;html=1;" edge="1" parent="1" source="slkItmRG1MetvJPkmrtS-12" target="slkItmRG1MetvJPkmrtS-14">
          <mxGeometry relative="1" as="geometry" />
        </mxCell>
        <mxCell id="slkItmRG1MetvJPkmrtS-21" value="" style="edgeStyle=orthogonalEdgeStyle;rounded=0;orthogonalLoop=1;jettySize=auto;html=1;" edge="1" parent="1" source="slkItmRG1MetvJPkmrtS-12" target="slkItmRG1MetvJPkmrtS-20">
          <mxGeometry relative="1" as="geometry" />
        </mxCell>
        <mxCell id="slkItmRG1MetvJPkmrtS-12" value="Proyecto" style="whiteSpace=wrap;html=1;rounded=0;" vertex="1" parent="1">
          <mxGeometry x="350" y="470" width="120" height="60" as="geometry" />
        </mxCell>
        <mxCell id="slkItmRG1MetvJPkmrtS-19" value="" style="edgeStyle=orthogonalEdgeStyle;rounded=0;orthogonalLoop=1;jettySize=auto;html=1;" edge="1" parent="1" source="slkItmRG1MetvJPkmrtS-14" target="slkItmRG1MetvJPkmrtS-18">
          <mxGeometry relative="1" as="geometry" />
        </mxCell>
        <mxCell id="slkItmRG1MetvJPkmrtS-14" value="tiene" style="rhombus;whiteSpace=wrap;html=1;rounded=0;" vertex="1" parent="1">
          <mxGeometry x="200" y="460" width="80" height="80" as="geometry" />
        </mxCell>
        <mxCell id="slkItmRG1MetvJPkmrtS-18" value="TipoProyecto" style="whiteSpace=wrap;html=1;rounded=0;" vertex="1" parent="1">
          <mxGeometry x="20" y="470" width="120" height="60" as="geometry" />
        </mxCell>
        <mxCell id="slkItmRG1MetvJPkmrtS-23" value="" style="edgeStyle=orthogonalEdgeStyle;rounded=0;orthogonalLoop=1;jettySize=auto;html=1;" edge="1" parent="1" source="slkItmRG1MetvJPkmrtS-20" target="slkItmRG1MetvJPkmrtS-22">
          <mxGeometry relative="1" as="geometry" />
        </mxCell>
        <mxCell id="slkItmRG1MetvJPkmrtS-20" value="tiene2" style="rhombus;whiteSpace=wrap;html=1;rounded=0;" vertex="1" parent="1">
          <mxGeometry x="540" y="460" width="80" height="80" as="geometry" />
        </mxCell>
        <mxCell id="slkItmRG1MetvJPkmrtS-22" value="Cargo" style="whiteSpace=wrap;html=1;rounded=0;" vertex="1" parent="1">
          <mxGeometry x="680" y="470" width="120" height="60" as="geometry" />
        </mxCell>
        <mxCell id="slkItmRG1MetvJPkmrtS-30" value="" style="edgeStyle=orthogonalEdgeStyle;rounded=0;orthogonalLoop=1;jettySize=auto;html=1;" edge="1" parent="1" source="slkItmRG1MetvJPkmrtS-27" target="slkItmRG1MetvJPkmrtS-29">
          <mxGeometry relative="1" as="geometry" />
        </mxCell>
        <mxCell id="slkItmRG1MetvJPkmrtS-27" value="tiene4" style="rhombus;whiteSpace=wrap;html=1;rounded=0;" vertex="1" parent="1">
          <mxGeometry x="400" y="30" width="80" height="80" as="geometry" />
        </mxCell>
        <mxCell id="slkItmRG1MetvJPkmrtS-29" value="Titulo" style="whiteSpace=wrap;html=1;rounded=0;" vertex="1" parent="1">
          <mxGeometry x="560" y="40" width="120" height="60" as="geometry" />
        </mxCell>
        <mxCell id="slkItmRG1MetvJPkmrtS-31" value="Direccion" style="ellipse;whiteSpace=wrap;html=1;" vertex="1" parent="1">
          <mxGeometry x="310" y="30" width="70" height="50" as="geometry" />
        </mxCell>
        <mxCell id="slkItmRG1MetvJPkmrtS-32" value="N° o&lt;div&gt;Calle o&lt;/div&gt;&lt;div&gt;Piso (0,1) o&lt;/div&gt;&lt;div&gt;Depto (0,1) o&lt;/div&gt;" style="text;html=1;align=right;verticalAlign=middle;resizable=0;points=[];autosize=1;strokeColor=none;fillColor=none;" vertex="1" parent="1">
          <mxGeometry x="210" y="10" width="90" height="70" as="geometry" />
        </mxCell>
        <mxCell id="slkItmRG1MetvJPkmrtS-34" value="" style="shape=waypoint;sketch=0;size=6;pointerEvents=1;points=[];fillColor=none;resizable=0;rotatable=0;perimeter=centerPerimeter;snapToPoint=1;" vertex="1" parent="1">
          <mxGeometry x="690" y="40" width="20" height="20" as="geometry" />
        </mxCell>
        <mxCell id="slkItmRG1MetvJPkmrtS-35" style="edgeStyle=orthogonalEdgeStyle;rounded=0;orthogonalLoop=1;jettySize=auto;html=1;entryX=0.217;entryY=0.9;entryDx=0;entryDy=0;entryPerimeter=0;endArrow=none;endFill=0;" edge="1" target="slkItmRG1MetvJPkmrtS-34" parent="1">
          <mxGeometry relative="1" as="geometry">
            <mxPoint x="680" y="50" as="sourcePoint" />
            <Array as="points">
              <mxPoint x="690" y="50" />
              <mxPoint x="690" y="50" />
            </Array>
          </mxGeometry>
        </mxCell>
        <mxCell id="slkItmRG1MetvJPkmrtS-36" value="Titulo" style="text;html=1;align=center;verticalAlign=middle;resizable=0;points=[];autosize=1;strokeColor=none;fillColor=none;" vertex="1" parent="1">
          <mxGeometry x="694" y="36" width="50" height="30" as="geometry" />
        </mxCell>
        <mxCell id="slkItmRG1MetvJPkmrtS-37" value="o descripcion" style="text;html=1;align=center;verticalAlign=middle;resizable=0;points=[];autosize=1;strokeColor=none;fillColor=none;" vertex="1" parent="1">
          <mxGeometry x="680" y="55" width="90" height="30" as="geometry" />
        </mxCell>
        <mxCell id="slkItmRG1MetvJPkmrtS-40" value="(1,1)" style="text;html=1;align=center;verticalAlign=middle;resizable=0;points=[];autosize=1;strokeColor=none;fillColor=none;" vertex="1" parent="1">
          <mxGeometry x="295" y="458" width="50" height="30" as="geometry" />
        </mxCell>
        <mxCell id="slkItmRG1MetvJPkmrtS-41" value="(1,N)" style="text;html=1;align=center;verticalAlign=middle;resizable=0;points=[];autosize=1;strokeColor=none;fillColor=none;" vertex="1" parent="1">
          <mxGeometry x="140" y="458" width="50" height="30" as="geometry" />
        </mxCell>
        <mxCell id="slkItmRG1MetvJPkmrtS-42" value="(1,N)" style="text;html=1;align=center;verticalAlign=middle;resizable=0;points=[];autosize=1;strokeColor=none;fillColor=none;" vertex="1" parent="1">
          <mxGeometry x="307" y="164" width="50" height="30" as="geometry" />
        </mxCell>
        <mxCell id="slkItmRG1MetvJPkmrtS-43" value="(1,N)" style="text;html=1;align=center;verticalAlign=middle;resizable=0;points=[];autosize=1;strokeColor=none;fillColor=none;" vertex="1" parent="1">
          <mxGeometry x="131" y="139" width="50" height="30" as="geometry" />
        </mxCell>
        <mxCell id="slkItmRG1MetvJPkmrtS-44" value="(1,N)" style="text;html=1;align=center;verticalAlign=middle;resizable=0;points=[];autosize=1;strokeColor=none;fillColor=none;" vertex="1" parent="1">
          <mxGeometry x="307" y="214" width="50" height="30" as="geometry" />
        </mxCell>
        <mxCell id="slkItmRG1MetvJPkmrtS-45" value="(1,1)" style="text;html=1;align=center;verticalAlign=middle;resizable=0;points=[];autosize=1;strokeColor=none;fillColor=none;" vertex="1" parent="1">
          <mxGeometry x="125" y="230" width="50" height="30" as="geometry" />
        </mxCell>
        <mxCell id="slkItmRG1MetvJPkmrtS-46" style="edgeStyle=orthogonalEdgeStyle;rounded=0;orthogonalLoop=1;jettySize=auto;html=1;endArrow=oval;endFill=0;" edge="1" parent="1">
          <mxGeometry relative="1" as="geometry">
            <mxPoint x="210" y="285" as="targetPoint" />
            <mxPoint x="210" y="270" as="sourcePoint" />
            <Array as="points">
              <mxPoint x="210" y="285" />
            </Array>
          </mxGeometry>
        </mxCell>
        <mxCell id="slkItmRG1MetvJPkmrtS-47" style="edgeStyle=orthogonalEdgeStyle;rounded=0;orthogonalLoop=1;jettySize=auto;html=1;endArrow=oval;endFill=0;" edge="1" parent="1">
          <mxGeometry relative="1" as="geometry">
            <mxPoint x="270" y="285" as="targetPoint" />
            <mxPoint x="270" y="270" as="sourcePoint" />
            <Array as="points">
              <mxPoint x="270" y="285" />
            </Array>
          </mxGeometry>
        </mxCell>
        <mxCell id="slkItmRG1MetvJPkmrtS-48" value="Desde" style="text;html=1;align=center;verticalAlign=middle;resizable=0;points=[];autosize=1;strokeColor=none;fillColor=none;" vertex="1" parent="1">
          <mxGeometry x="170" y="298" width="60" height="30" as="geometry" />
        </mxCell>
        <mxCell id="slkItmRG1MetvJPkmrtS-49" value="Hasta(0,1)" style="text;html=1;align=center;verticalAlign=middle;resizable=0;points=[];autosize=1;strokeColor=none;fillColor=none;" vertex="1" parent="1">
          <mxGeometry x="230" y="298" width="80" height="30" as="geometry" />
        </mxCell>
        <mxCell id="slkItmRG1MetvJPkmrtS-50" style="edgeStyle=orthogonalEdgeStyle;rounded=0;orthogonalLoop=1;jettySize=auto;html=1;endArrow=oval;endFill=0;" edge="1" parent="1">
          <mxGeometry relative="1" as="geometry">
            <mxPoint x="210" y="165" as="targetPoint" />
            <mxPoint x="210" y="150" as="sourcePoint" />
            <Array as="points">
              <mxPoint x="210" y="165" />
            </Array>
          </mxGeometry>
        </mxCell>
        <mxCell id="slkItmRG1MetvJPkmrtS-51" style="edgeStyle=orthogonalEdgeStyle;rounded=0;orthogonalLoop=1;jettySize=auto;html=1;endArrow=oval;endFill=0;" edge="1" parent="1">
          <mxGeometry relative="1" as="geometry">
            <mxPoint x="270" y="165" as="targetPoint" />
            <mxPoint x="270" y="150" as="sourcePoint" />
            <Array as="points">
              <mxPoint x="270" y="165" />
            </Array>
          </mxGeometry>
        </mxCell>
        <mxCell id="slkItmRG1MetvJPkmrtS-52" value="Desde" style="text;html=1;align=center;verticalAlign=middle;resizable=0;points=[];autosize=1;strokeColor=none;fillColor=none;" vertex="1" parent="1">
          <mxGeometry x="170" y="178" width="60" height="30" as="geometry" />
        </mxCell>
        <mxCell id="slkItmRG1MetvJPkmrtS-53" value="Hasta(0,1)" style="text;html=1;align=center;verticalAlign=middle;resizable=0;points=[];autosize=1;strokeColor=none;fillColor=none;" vertex="1" parent="1">
          <mxGeometry x="230" y="178" width="80" height="30" as="geometry" />
        </mxCell>
        <mxCell id="slkItmRG1MetvJPkmrtS-54" value="(1,N)" style="text;html=1;align=center;verticalAlign=middle;resizable=0;points=[];autosize=1;strokeColor=none;fillColor=none;" vertex="1" parent="1">
          <mxGeometry x="480" y="470" width="50" height="30" as="geometry" />
        </mxCell>
        <mxCell id="slkItmRG1MetvJPkmrtS-55" value="(1,N)" style="text;html=1;align=center;verticalAlign=middle;resizable=0;points=[];autosize=1;strokeColor=none;fillColor=none;" vertex="1" parent="1">
          <mxGeometry x="620" y="470" width="50" height="30" as="geometry" />
        </mxCell>
        <mxCell id="slkItmRG1MetvJPkmrtS-56" value="(0,N)" style="text;html=1;align=center;verticalAlign=middle;resizable=0;points=[];autosize=1;strokeColor=none;fillColor=none;" vertex="1" parent="1">
          <mxGeometry x="435" y="138" width="50" height="30" as="geometry" />
        </mxCell>
        <mxCell id="slkItmRG1MetvJPkmrtS-57" value="(1,N)" style="text;html=1;align=center;verticalAlign=middle;resizable=0;points=[];autosize=1;strokeColor=none;fillColor=none;" vertex="1" parent="1">
          <mxGeometry x="495" y="68" width="50" height="30" as="geometry" />
        </mxCell>
        <mxCell id="slkItmRG1MetvJPkmrtS-58" value="(1,N)" style="text;html=1;align=center;verticalAlign=middle;resizable=0;points=[];autosize=1;strokeColor=none;fillColor=none;" vertex="1" parent="1">
          <mxGeometry x="400" y="230" width="50" height="30" as="geometry" />
        </mxCell>
        <mxCell id="slkItmRG1MetvJPkmrtS-59" value="(1,N)" style="text;html=1;align=center;verticalAlign=middle;resizable=0;points=[];autosize=1;strokeColor=none;fillColor=none;" vertex="1" parent="1">
          <mxGeometry x="690" y="440" width="50" height="30" as="geometry" />
        </mxCell>
        <mxCell id="slkItmRG1MetvJPkmrtS-60" value="" style="shape=waypoint;sketch=0;size=6;pointerEvents=1;points=[];fillColor=none;resizable=0;rotatable=0;perimeter=centerPerimeter;snapToPoint=1;" vertex="1" parent="1">
          <mxGeometry x="480" y="168" width="20" height="20" as="geometry" />
        </mxCell>
        <mxCell id="slkItmRG1MetvJPkmrtS-61" style="edgeStyle=orthogonalEdgeStyle;rounded=0;orthogonalLoop=1;jettySize=auto;html=1;entryX=0.217;entryY=0.9;entryDx=0;entryDy=0;entryPerimeter=0;endArrow=none;endFill=0;" edge="1" target="slkItmRG1MetvJPkmrtS-60" parent="1">
          <mxGeometry relative="1" as="geometry">
            <mxPoint x="470" y="178" as="sourcePoint" />
            <Array as="points">
              <mxPoint x="480" y="178" />
              <mxPoint x="480" y="178" />
            </Array>
          </mxGeometry>
        </mxCell>
        <mxCell id="slkItmRG1MetvJPkmrtS-62" value="DNI" style="text;html=1;align=center;verticalAlign=middle;resizable=0;points=[];autosize=1;strokeColor=none;fillColor=none;" vertex="1" parent="1">
          <mxGeometry x="486" y="164" width="40" height="30" as="geometry" />
        </mxCell>
        <mxCell id="slkItmRG1MetvJPkmrtS-63" value="" style="shape=waypoint;sketch=0;size=6;pointerEvents=1;points=[];fillColor=none;resizable=0;rotatable=0;perimeter=centerPerimeter;snapToPoint=1;" vertex="1" parent="1">
          <mxGeometry x="480" y="184" width="20" height="20" as="geometry" />
        </mxCell>
        <mxCell id="slkItmRG1MetvJPkmrtS-64" style="edgeStyle=orthogonalEdgeStyle;rounded=0;orthogonalLoop=1;jettySize=auto;html=1;entryX=0.217;entryY=0.9;entryDx=0;entryDy=0;entryPerimeter=0;endArrow=none;endFill=0;" edge="1" parent="1" target="slkItmRG1MetvJPkmrtS-63">
          <mxGeometry relative="1" as="geometry">
            <mxPoint x="470" y="194" as="sourcePoint" />
            <Array as="points">
              <mxPoint x="480" y="194" />
              <mxPoint x="480" y="194" />
            </Array>
          </mxGeometry>
        </mxCell>
        <mxCell id="slkItmRG1MetvJPkmrtS-65" value="&amp;nbsp;CUIL" style="text;html=1;align=center;verticalAlign=middle;resizable=0;points=[];autosize=1;strokeColor=none;fillColor=none;" vertex="1" parent="1">
          <mxGeometry x="481" y="180" width="50" height="30" as="geometry" />
        </mxCell>
        <mxCell id="slkItmRG1MetvJPkmrtS-71" value="&lt;h5 style=&quot;font-size: 5px;&quot;&gt;&lt;span style=&quot;font-weight: normal;&quot;&gt;o fechaNac&lt;br&gt;o cantHijos&lt;br&gt;o telefono(1,N)&lt;br&gt;o fechaIngreso&lt;/span&gt;&lt;/h5&gt;&lt;div&gt;&lt;br&gt;&lt;/div&gt;" style="text;html=1;align=left;verticalAlign=middle;resizable=0;points=[];autosize=1;strokeColor=none;fillColor=none;" vertex="1" parent="1">
          <mxGeometry x="480" y="194" width="60" height="70" as="geometry" />
        </mxCell>
        <mxCell id="slkItmRG1MetvJPkmrtS-72" value="" style="shape=waypoint;sketch=0;size=6;pointerEvents=1;points=[];fillColor=none;resizable=0;rotatable=0;perimeter=centerPerimeter;snapToPoint=1;" vertex="1" parent="1">
          <mxGeometry y="170" width="20" height="20" as="geometry" />
        </mxCell>
        <mxCell id="slkItmRG1MetvJPkmrtS-73" style="edgeStyle=orthogonalEdgeStyle;rounded=0;orthogonalLoop=1;jettySize=auto;html=1;entryX=0;entryY=0.323;entryDx=0;entryDy=0;entryPerimeter=0;endArrow=none;endFill=0;" edge="1" source="slkItmRG1MetvJPkmrtS-72" parent="1">
          <mxGeometry relative="1" as="geometry">
            <mxPoint x="30" y="179" as="targetPoint" />
          </mxGeometry>
        </mxCell>
        <mxCell id="slkItmRG1MetvJPkmrtS-74" value="nombreA" style="text;html=1;align=center;verticalAlign=middle;resizable=0;points=[];autosize=1;strokeColor=none;fillColor=none;" vertex="1" parent="1">
          <mxGeometry x="-59" y="165" width="70" height="30" as="geometry" />
        </mxCell>
        <mxCell id="slkItmRG1MetvJPkmrtS-75" value="" style="shape=waypoint;sketch=0;size=6;pointerEvents=1;points=[];fillColor=none;resizable=0;rotatable=0;perimeter=centerPerimeter;snapToPoint=1;" vertex="1" parent="1">
          <mxGeometry y="189" width="20" height="20" as="geometry" />
        </mxCell>
        <mxCell id="slkItmRG1MetvJPkmrtS-76" style="edgeStyle=orthogonalEdgeStyle;rounded=0;orthogonalLoop=1;jettySize=auto;html=1;entryX=0;entryY=0.323;entryDx=0;entryDy=0;entryPerimeter=0;endArrow=none;endFill=0;" edge="1" parent="1" source="slkItmRG1MetvJPkmrtS-75">
          <mxGeometry relative="1" as="geometry">
            <mxPoint x="30" y="198" as="targetPoint" />
          </mxGeometry>
        </mxCell>
        <mxCell id="slkItmRG1MetvJPkmrtS-77" value="codigoA" style="text;html=1;align=center;verticalAlign=middle;resizable=0;points=[];autosize=1;strokeColor=none;fillColor=none;" vertex="1" parent="1">
          <mxGeometry x="-59" y="184" width="70" height="30" as="geometry" />
        </mxCell>
        <mxCell id="slkItmRG1MetvJPkmrtS-78" value="descripcion o" style="text;html=1;align=center;verticalAlign=middle;resizable=0;points=[];autosize=1;strokeColor=none;fillColor=none;" vertex="1" parent="1">
          <mxGeometry x="-58" y="204" width="90" height="30" as="geometry" />
        </mxCell>
        <mxCell id="slkItmRG1MetvJPkmrtS-79" style="edgeStyle=orthogonalEdgeStyle;rounded=0;orthogonalLoop=1;jettySize=auto;html=1;endArrow=oval;endFill=1;" edge="1" parent="1">
          <mxGeometry relative="1" as="geometry">
            <mxPoint x="350" y="545" as="targetPoint" />
            <mxPoint x="350" y="530" as="sourcePoint" />
            <Array as="points">
              <mxPoint x="350" y="545" />
            </Array>
          </mxGeometry>
        </mxCell>
        <mxCell id="slkItmRG1MetvJPkmrtS-80" style="edgeStyle=orthogonalEdgeStyle;rounded=0;orthogonalLoop=1;jettySize=auto;html=1;endArrow=oval;endFill=0;" edge="1" parent="1">
          <mxGeometry relative="1" as="geometry">
            <mxPoint x="370" y="545" as="targetPoint" />
            <mxPoint x="370" y="530" as="sourcePoint" />
            <Array as="points">
              <mxPoint x="370" y="545" />
            </Array>
          </mxGeometry>
        </mxCell>
        <mxCell id="slkItmRG1MetvJPkmrtS-81" style="edgeStyle=orthogonalEdgeStyle;rounded=0;orthogonalLoop=1;jettySize=auto;html=1;endArrow=oval;endFill=0;" edge="1" parent="1">
          <mxGeometry relative="1" as="geometry">
            <mxPoint x="390" y="545" as="targetPoint" />
            <mxPoint x="390" y="530" as="sourcePoint" />
            <Array as="points">
              <mxPoint x="390" y="545" />
            </Array>
          </mxGeometry>
        </mxCell>
        <mxCell id="slkItmRG1MetvJPkmrtS-82" style="edgeStyle=orthogonalEdgeStyle;rounded=0;orthogonalLoop=1;jettySize=auto;html=1;endArrow=oval;endFill=0;" edge="1" parent="1">
          <mxGeometry relative="1" as="geometry">
            <mxPoint x="410" y="545" as="targetPoint" />
            <mxPoint x="410" y="530" as="sourcePoint" />
            <Array as="points">
              <mxPoint x="410" y="545" />
            </Array>
          </mxGeometry>
        </mxCell>
        <mxCell id="slkItmRG1MetvJPkmrtS-85" value="&lt;font style=&quot;font-size: 9px;&quot;&gt;nombre&lt;/font&gt;" style="text;html=1;align=center;verticalAlign=middle;resizable=0;points=[];autosize=1;strokeColor=none;fillColor=none;rotation=-43;" vertex="1" parent="1">
          <mxGeometry x="310" y="546" width="50" height="30" as="geometry" />
        </mxCell>
        <mxCell id="slkItmRG1MetvJPkmrtS-87" value="&lt;font style=&quot;font-size: 9px;&quot;&gt;fechaComienzo&lt;/font&gt;" style="text;html=1;align=center;verticalAlign=middle;resizable=0;points=[];autosize=1;strokeColor=none;fillColor=none;rotation=-43;" vertex="1" parent="1">
          <mxGeometry x="298" y="556" width="90" height="30" as="geometry" />
        </mxCell>
        <mxCell id="slkItmRG1MetvJPkmrtS-88" value="&lt;font style=&quot;font-size: 9px;&quot;&gt;fechaEFin&lt;/font&gt;" style="text;html=1;align=center;verticalAlign=middle;resizable=0;points=[];autosize=1;strokeColor=none;fillColor=none;rotation=-43;" vertex="1" parent="1">
          <mxGeometry x="344" y="551" width="60" height="30" as="geometry" />
        </mxCell>
        <mxCell id="slkItmRG1MetvJPkmrtS-89" value="&lt;font style=&quot;font-size: 9px;&quot;&gt;costoEstimado&lt;/font&gt;" style="text;html=1;align=center;verticalAlign=middle;resizable=0;points=[];autosize=1;strokeColor=none;fillColor=none;rotation=-43;" vertex="1" parent="1">
          <mxGeometry x="347" y="558" width="80" height="30" as="geometry" />
        </mxCell>
        <mxCell id="slkItmRG1MetvJPkmrtS-90" value="" style="shape=waypoint;sketch=0;size=6;pointerEvents=1;points=[];fillColor=none;resizable=0;rotatable=0;perimeter=centerPerimeter;snapToPoint=1;" vertex="1" parent="1">
          <mxGeometry x="-10" y="468" width="20" height="20" as="geometry" />
        </mxCell>
        <mxCell id="slkItmRG1MetvJPkmrtS-91" style="edgeStyle=orthogonalEdgeStyle;rounded=0;orthogonalLoop=1;jettySize=auto;html=1;entryX=0;entryY=0.323;entryDx=0;entryDy=0;entryPerimeter=0;endArrow=none;endFill=0;" edge="1" source="slkItmRG1MetvJPkmrtS-90" parent="1">
          <mxGeometry relative="1" as="geometry">
            <mxPoint x="20" y="477" as="targetPoint" />
          </mxGeometry>
        </mxCell>
        <mxCell id="slkItmRG1MetvJPkmrtS-92" value="nombreT" style="text;html=1;align=center;verticalAlign=middle;resizable=0;points=[];autosize=1;strokeColor=none;fillColor=none;" vertex="1" parent="1">
          <mxGeometry x="-64" y="461" width="70" height="30" as="geometry" />
        </mxCell>
        <mxCell id="slkItmRG1MetvJPkmrtS-93" value="descripcion o" style="text;html=1;align=center;verticalAlign=middle;resizable=0;points=[];autosize=1;strokeColor=none;fillColor=none;" vertex="1" parent="1">
          <mxGeometry x="-63" y="478" width="90" height="30" as="geometry" />
        </mxCell>
        <mxCell id="slkItmRG1MetvJPkmrtS-95" style="edgeStyle=orthogonalEdgeStyle;rounded=0;orthogonalLoop=1;jettySize=auto;html=1;endArrow=oval;endFill=0;" edge="1" parent="1">
          <mxGeometry relative="1" as="geometry">
            <mxPoint x="707.5" y="337.5" as="targetPoint" />
            <mxPoint x="707.5" y="322.5" as="sourcePoint" />
            <Array as="points">
              <mxPoint x="707.5" y="337.5" />
            </Array>
          </mxGeometry>
        </mxCell>
        <mxCell id="slkItmRG1MetvJPkmrtS-96" value="fechaFIN" style="text;html=1;align=center;verticalAlign=middle;resizable=0;points=[];autosize=1;strokeColor=none;fillColor=none;" vertex="1" parent="1">
          <mxGeometry x="702.5" y="323.5" width="70" height="30" as="geometry" />
        </mxCell>
        <mxCell id="slkItmRG1MetvJPkmrtS-98" value="fechaInicio" style="text;html=1;align=center;verticalAlign=middle;resizable=0;points=[];autosize=1;strokeColor=none;fillColor=none;" vertex="1" parent="1">
          <mxGeometry x="732.5" y="295.5" width="80" height="30" as="geometry" />
        </mxCell>
        <mxCell id="slkItmRG1MetvJPkmrtS-101" style="edgeStyle=orthogonalEdgeStyle;rounded=0;orthogonalLoop=1;jettySize=auto;html=1;endArrow=oval;endFill=0;" edge="1" parent="1">
          <mxGeometry relative="1" as="geometry">
            <mxPoint x="707.5" y="282.5" as="targetPoint" />
            <mxPoint x="687" y="282" as="sourcePoint" />
          </mxGeometry>
        </mxCell>
        <mxCell id="slkItmRG1MetvJPkmrtS-102" value="cantHoras" style="text;html=1;align=center;verticalAlign=middle;resizable=0;points=[];autosize=1;strokeColor=none;fillColor=none;" vertex="1" parent="1">
          <mxGeometry x="697.5" y="264" width="80" height="30" as="geometry" />
        </mxCell>
        <mxCell id="slkItmRG1MetvJPkmrtS-103" style="edgeStyle=orthogonalEdgeStyle;rounded=0;orthogonalLoop=1;jettySize=auto;html=1;endArrow=oval;endFill=1;" edge="1" parent="1">
          <mxGeometry relative="1" as="geometry">
            <mxPoint x="693" y="545" as="targetPoint" />
            <mxPoint x="693" y="530" as="sourcePoint" />
            <Array as="points">
              <mxPoint x="693" y="545" />
            </Array>
          </mxGeometry>
        </mxCell>
        <mxCell id="slkItmRG1MetvJPkmrtS-104" style="edgeStyle=orthogonalEdgeStyle;rounded=0;orthogonalLoop=1;jettySize=auto;html=1;endArrow=oval;endFill=0;" edge="1" parent="1">
          <mxGeometry relative="1" as="geometry">
            <mxPoint x="713" y="545" as="targetPoint" />
            <mxPoint x="713" y="530" as="sourcePoint" />
            <Array as="points">
              <mxPoint x="713" y="545" />
            </Array>
          </mxGeometry>
        </mxCell>
        <mxCell id="slkItmRG1MetvJPkmrtS-105" style="edgeStyle=orthogonalEdgeStyle;rounded=0;orthogonalLoop=1;jettySize=auto;html=1;endArrow=oval;endFill=0;" edge="1" parent="1">
          <mxGeometry relative="1" as="geometry">
            <mxPoint x="733" y="545" as="targetPoint" />
            <mxPoint x="733" y="530" as="sourcePoint" />
            <Array as="points">
              <mxPoint x="733" y="545" />
            </Array>
          </mxGeometry>
        </mxCell>
        <mxCell id="slkItmRG1MetvJPkmrtS-107" value="&lt;font style=&quot;font-size: 9px;&quot;&gt;codigo&lt;/font&gt;" style="text;html=1;align=center;verticalAlign=middle;resizable=0;points=[];autosize=1;strokeColor=none;fillColor=none;rotation=-43;" vertex="1" parent="1">
          <mxGeometry x="653" y="542" width="50" height="30" as="geometry" />
        </mxCell>
        <mxCell id="slkItmRG1MetvJPkmrtS-108" value="&lt;font style=&quot;font-size: 9px;&quot;&gt;nombre&lt;/font&gt;" style="text;html=1;align=center;verticalAlign=middle;resizable=0;points=[];autosize=1;strokeColor=none;fillColor=none;rotation=-43;" vertex="1" parent="1">
          <mxGeometry x="677" y="549" width="50" height="30" as="geometry" />
        </mxCell>
        <mxCell id="slkItmRG1MetvJPkmrtS-110" value="&lt;font style=&quot;font-size: 9px;&quot;&gt;descripcion&lt;/font&gt;" style="text;html=1;align=center;verticalAlign=middle;resizable=0;points=[];autosize=1;strokeColor=none;fillColor=none;rotation=-43;" vertex="1" parent="1">
          <mxGeometry x="681" y="554" width="70" height="30" as="geometry" />
        </mxCell>
      </root>
    </mxGraphModel>
  </diagram>
</mxfile>
